<?xml version="1.0" standalone="no"?>
<!DOCTYPE svg PUBLIC "-//W3C//DTD SVG 20010904//EN"
 "http://www.w3.org/TR/2001/REC-SVG-20010904/DTD/svg10.dtd">
<svg version="1.0" xmlns="http://www.w3.org/2000/svg"
 width="794.000000pt" height="794.000000pt" viewBox="0 0 794.000000 794.000000"
 preserveAspectRatio="xMidYMid meet">
<metadata>
Created by potrace 1.14, written by Peter Selinger 2001-2017
</metadata>
<g transform="translate(0.000000,794.000000) scale(0.100000,-0.100000)"
fill="#000000" stroke="none">
<path d="M1450 7550 c0 -7 -8 -9 -20 -5 -13 4 -20 2 -20 -7 0 -10 -3 -9 -10 2
-6 9 -10 10 -10 3 0 -6 -9 -10 -20 -8 -11 2 -20 0 -20 -5 0 -5 -9 -7 -20 -5
-11 2 -20 0 -20 -6 0 -5 -9 -9 -21 -9 -11 0 -18 -4 -15 -9 4 -5 -3 -7 -14 -4
-11 3 -20 0 -20 -6 0 -6 -4 -10 -9 -8 -5 1 -17 -7 -26 -18 -9 -11 -13 -13 -10
-5 4 8 -3 4 -16 -10 -13 -14 -20 -19 -14 -10 6 10 2 9 -12 -4 -13 -10 -25 -27
-28 -37 -4 -11 -11 -16 -17 -13 -7 5 -9 1 -5 -9 3 -10 2 -17 -3 -17 -5 0 -8
-36 -7 -80 1 -46 -2 -82 -8 -84 -7 -3 -7 -5 0 -5 12 -1 11 -185 -1 -215 -6
-15 -4 -17 7 -11 8 5 7 1 -4 -12 -9 -11 -14 -23 -10 -26 11 -12 11 -52 -1 -59
-7 -5 -8 -11 -1 -15 15 -12 18 -43 4 -43 -8 0 -8 -4 -2 -12 13 -16 13 -48 0
-48 -5 0 -3 -8 4 -17 12 -15 12 -16 -1 -8 -13 8 -13 7 -1 -9 12 -14 12 -19 2
-26 -9 -5 -10 -10 -2 -14 7 -5 8 -13 2 -24 -5 -10 -8 -36 -8 -60 1 -23 -2 -44
-8 -46 -6 -3 -5 -5 2 -5 6 -1 9 -10 5 -23 -4 -16 -2 -19 9 -14 8 4 6 1 -4 -7
-10 -8 -14 -17 -10 -20 5 -3 7 -30 5 -59 -3 -29 -6 -66 -6 -83 -1 -16 -5 -33
-11 -37 -6 -5 -6 -8 2 -8 12 0 12 -17 0 -38 -5 -7 -2 -14 8 -18 14 -6 14 -8
-2 -20 -10 -7 -13 -14 -7 -14 11 0 12 -35 1 -46 -12 -12 -8 -26 6 -18 8 6 8 3
-1 -9 -8 -9 -11 -25 -7 -38 5 -16 4 -19 -5 -14 -9 6 -11 4 -6 -4 11 -17 13
-181 3 -181 -5 0 -6 -4 -2 -9 3 -5 0 -13 -6 -17 -8 -5 -8 -9 1 -14 9 -5 9 -13
2 -27 -8 -15 -8 -23 1 -33 9 -10 9 -14 -1 -17 -10 -4 -10 -8 -1 -19 9 -11 9
-14 -1 -14 -10 0 -10 -3 -1 -14 9 -11 9 -16 1 -21 -7 -4 -10 -16 -7 -26 3 -11
0 -19 -6 -19 -8 0 -8 -3 -2 -8 6 -4 10 -16 10 -27 0 -11 -4 -23 -10 -27 -7 -5
-7 -8 0 -8 6 0 10 -20 10 -45 0 -25 -3 -45 -7 -45 -4 0 -5 -9 -3 -20 2 -11 -2
-20 -8 -20 -9 0 -9 -2 0 -8 13 -8 11 -41 -3 -64 -4 -6 -3 -8 3 -5 5 3 9 -12 9
-38 -1 -23 -4 -41 -8 -38 -5 2 -8 -3 -8 -11 0 -9 6 -16 13 -16 6 0 4 -5 -6
-11 -13 -8 -15 -14 -7 -30 8 -14 7 -19 -2 -19 -6 0 -3 -7 8 -16 10 -8 13 -12
5 -8 -10 5 -13 -2 -9 -35 2 -22 0 -41 -5 -41 -4 0 -6 -4 -2 -9 3 -5 1 -12 -5
-16 -6 -4 -7 -12 -3 -18 10 -17 11 -47 1 -53 -4 -3 -6 -10 -2 -15 9 -16 12
-59 3 -59 -4 0 -6 -13 -4 -30 2 -16 -1 -30 -6 -30 -6 0 -7 -5 -3 -12 11 -18
13 -68 2 -68 -6 0 -6 -6 1 -14 7 -8 8 -17 3 -20 -5 -3 -9 -23 -8 -43 1 -21 -2
-44 -7 -50 -6 -8 -6 -13 0 -13 5 0 9 -9 10 -20 1 -11 -1 -19 -5 -16 -4 2 -7
-7 -7 -20 0 -13 3 -24 6 -24 3 0 6 -7 6 -15 0 -8 -4 -12 -8 -9 -4 2 -7 -16 -7
-41 0 -27 4 -45 11 -45 7 0 4 -5 -7 -11 -15 -9 -16 -13 -5 -20 12 -8 12 -11
-1 -19 -12 -8 -12 -10 -1 -10 11 0 11 -3 1 -15 -7 -8 -9 -15 -5 -15 4 0 1 -8
-6 -17 -10 -11 -10 -14 -1 -9 14 8 16 -3 2 -24 -6 -9 -5 -19 2 -28 9 -10 8
-16 -1 -22 -10 -5 -10 -9 -2 -15 9 -5 9 -10 1 -20 -8 -10 -7 -14 2 -18 11 -4
10 -6 0 -6 -7 -1 -10 -5 -7 -11 3 -5 0 -10 -7 -10 -8 0 -9 -3 -3 -8 6 -4 10
-16 10 -27 0 -11 -4 -23 -10 -27 -6 -5 -5 -8 2 -8 7 0 10 -7 6 -16 -3 -9 -7
-25 -8 -37 -1 -12 -3 -25 -4 -28 -1 -8 -33 -5 -49 5 -8 5 -11 3 -10 -6 2 -7
-2 -12 -9 -11 -6 2 -15 -6 -18 -17 -4 -11 -11 -20 -16 -20 -6 0 -8 -4 -5 -9 3
-5 -1 -12 -9 -15 -8 -3 -14 -9 -13 -13 2 -4 -9 -20 -22 -35 -65 -69 -94 -103
-93 -108 1 -3 -5 -9 -13 -13 -8 -5 -11 -13 -8 -19 4 -7 2 -8 -4 -4 -6 3 -16
-3 -22 -14 -6 -11 -15 -18 -20 -15 -5 3 -7 -4 -5 -15 2 -12 0 -18 -6 -14 -13
8 -62 -45 -55 -61 2 -7 -3 -12 -12 -11 -9 0 -16 -5 -15 -11 2 -7 -1 -13 -7
-13 -14 0 -70 -57 -63 -64 4 -3 -1 -6 -10 -6 -9 0 -19 -5 -23 -12 -5 -7 -2 -9
7 -4 8 4 6 1 -3 -7 -10 -8 -15 -17 -11 -20 3 -4 -4 -5 -16 -2 -11 2 -21 1 -21
-3 0 -4 -18 -20 -39 -36 -27 -19 -38 -35 -36 -48 2 -10 0 -16 -6 -13 -8 5 -14
-15 -10 -37 0 -5 -4 -8 -10 -8 -5 0 -8 -4 -4 -9 3 -5 -2 -16 -10 -25 -10 -10
-12 -17 -4 -21 7 -5 5 -13 -5 -24 -13 -14 -13 -20 -3 -30 9 -10 9 -11 -5 -6
-13 5 -15 2 -11 -14 3 -12 13 -21 23 -21 10 0 23 -7 30 -15 7 -9 19 -14 26
-11 7 3 15 -2 18 -10 3 -9 10 -13 15 -10 5 4 11 1 13 -4 2 -6 13 -12 26 -13
12 0 22 -5 22 -9 0 -4 9 -8 19 -8 11 0 21 -4 23 -9 2 -5 10 -11 18 -13 8 -2
18 -7 21 -11 3 -4 15 -9 27 -10 11 0 18 -5 16 -9 -3 -4 2 -8 10 -8 9 0 16 -4
16 -8 0 -13 34 -11 42 2 5 7 8 7 8 -2 0 -9 5 -10 17 -3 13 7 25 4 47 -12 17
-12 26 -15 21 -6 -5 8 1 5 13 -5 12 -11 22 -15 22 -10 0 5 4 3 9 -4 4 -7 18
-14 29 -15 12 -1 22 -4 22 -7 0 -8 56 -31 79 -33 11 0 17 -5 15 -9 -3 -4 2 -8
10 -8 9 0 16 -4 16 -10 0 -5 7 -7 15 -4 8 4 15 1 15 -4 0 -6 9 -9 20 -7 11 2
18 0 15 -6 -4 -5 1 -9 9 -9 9 0 16 -5 16 -12 0 -6 3 -8 7 -5 3 4 21 -3 40 -14
31 -19 33 -19 27 -2 -5 13 -2 12 10 -5 10 -12 21 -20 26 -17 5 3 13 -3 19 -12
8 -13 10 -14 11 -4 0 11 4 10 16 -5 8 -10 12 -12 8 -4 -7 13 -5 13 9 1 9 -7
17 -10 17 -7 0 4 7 0 16 -8 8 -9 20 -14 25 -11 5 4 9 2 9 -2 0 -8 51 -32 67
-31 3 0 10 -6 14 -14 7 -11 9 -11 9 1 0 8 8 4 21 -10 11 -13 18 -18 14 -12 -3
7 -2 13 3 13 6 0 13 -7 16 -16 3 -8 11 -12 17 -8 7 4 6 -2 -2 -17 -11 -22 -11
-23 4 -10 10 7 17 9 17 3 0 -15 -26 -22 -39 -9 -8 8 -11 8 -11 -1 0 -14 -21
-12 -32 3 -4 6 -8 1 -8 -10 -1 -18 -2 -18 -11 -3 -5 10 -16 15 -25 11 -8 -3
-32 -6 -52 -7 -20 0 -43 -5 -51 -10 -11 -7 -12 -6 -6 5 8 12 6 12 -8 0 -12 -9
-17 -10 -17 -2 0 7 -5 9 -13 4 -18 -12 -61 -11 -69 1 -5 7 -11 8 -15 1 -12
-15 -31 -17 -55 -4 -13 7 -18 7 -14 1 4 -6 -2 -10 -14 -9 -11 1 -20 6 -20 11
0 6 -5 5 -12 -2 -15 -15 -32 -16 -22 -1 4 7 -1 7 -16 -1 -18 -9 -24 -9 -30 0
-5 9 -9 9 -14 1 -4 -6 -12 -11 -17 -11 -6 0 -7 5 -3 11 4 7 -2 6 -17 -1 -18
-10 -24 -10 -27 -1 -3 9 -8 9 -20 -1 -18 -15 -22 -15 -33 4 -5 7 -9 8 -9 2 0
-12 -29 -12 -47 -1 -14 9 -86 -60 -78 -74 4 -5 -1 -9 -11 -9 -14 0 -15 -2 -3
-17 10 -11 10 -14 2 -9 -12 7 -18 -6 -13 -29 1 -5 -1 -7 -5 -3 -4 4 -14 1 -21
-7 -17 -17 -18 -28 -2 -20 7 4 3 -2 -9 -13 -13 -11 -23 -23 -23 -28 0 -4 -8
-13 -17 -21 -11 -9 -12 -11 -3 -7 11 6 10 2 -2 -13 -10 -11 -18 -25 -18 -31 0
-7 -4 -12 -10 -12 -5 0 -10 -6 -10 -13 0 -7 -9 -23 -19 -34 -11 -12 -17 -24
-14 -27 4 -3 1 -6 -5 -6 -7 0 -12 -7 -12 -15 0 -8 -3 -15 -8 -15 -9 0 -38 -61
-34 -73 1 -5 -2 -6 -7 -3 -8 5 -24 -19 -18 -27 1 -2 -6 -11 -16 -21 -9 -10
-17 -23 -17 -31 0 -7 -7 -16 -16 -19 -8 -3 -12 -10 -9 -16 3 -6 -1 -13 -9 -16
-9 -3 -13 -10 -10 -15 3 -5 0 -9 -5 -9 -6 0 -11 -9 -11 -21 0 -11 -4 -17 -10
-14 -5 3 -10 -1 -10 -9 0 -9 -5 -16 -11 -16 -5 0 -8 -4 -4 -9 3 -5 -1 -16 -9
-24 -8 -8 -12 -17 -9 -21 4 -3 0 -6 -7 -6 -7 0 -10 -3 -7 -6 4 -4 -3 -15 -14
-25 -14 -12 -19 -24 -15 -36 4 -10 4 -14 0 -11 -8 8 -34 -14 -27 -25 2 -4 0
-7 -6 -7 -6 0 -7 -7 -4 -17 4 -11 3 -14 -5 -9 -7 4 -14 -3 -18 -19 -3 -13 -10
-23 -14 -20 -5 3 -11 -4 -15 -15 -3 -11 -12 -19 -18 -17 -7 1 -11 -4 -9 -11 1
-7 -5 -15 -13 -18 -8 -4 -15 -12 -15 -20 0 -8 -6 -14 -12 -14 -9 0 -8 -4 2
-10 11 -8 12 -12 3 -18 -16 -10 -14 -194 1 -204 7 -5 6 -8 -3 -8 -8 0 -4 -7 9
-18 19 -15 21 -22 12 -39 -6 -11 -8 -23 -5 -27 11 -11 12 -36 1 -36 -6 0 -4
-7 3 -17 12 -14 12 -16 0 -8 -10 6 -12 4 -6 -5 11 -18 15 -60 5 -60 -13 0 -5
-31 11 -41 12 -7 12 -9 -2 -9 -12 0 -15 -11 -15 -52 1 -29 -3 -56 -9 -60 -6
-5 -5 -8 2 -8 9 0 10 -7 3 -25 -6 -17 -6 -25 1 -25 6 0 7 -6 0 -17 -6 -12 -5
-21 7 -31 10 -7 12 -11 5 -8 -8 4 -11 -14 -11 -64 0 -49 4 -68 12 -63 6 4 5
-1 -3 -10 -7 -10 -9 -17 -3 -17 6 0 9 -8 7 -17 -2 -10 -4 -18 -5 -18 -1 0 -3
-10 -4 -23 -2 -13 4 -27 13 -32 9 -5 11 -10 4 -10 -6 0 -14 -18 -18 -40 -4
-22 -11 -42 -15 -45 -5 -3 -5 -17 0 -31 13 -32 12 -37 0 -29 -6 4 -7 -2 -2
-17 10 -27 9 -39 -1 -55 -5 -7 -4 -13 0 -13 5 0 9 -9 10 -20 1 -11 -2 -18 -7
-15 -4 3 -6 -4 -3 -15 5 -20 43 -49 43 -33 0 4 4 2 9 -6 6 -9 14 -10 22 -5 19
12 31 12 53 1 13 -6 16 -6 11 3 -9 14 26 10 37 -5 5 -7 10 -7 15 0 12 15 31
17 55 4 13 -7 18 -7 14 -1 -4 6 2 10 14 9 11 -1 20 -6 20 -11 0 -6 5 -5 12 2
15 15 32 16 22 1 -4 -7 1 -7 16 1 18 9 24 9 30 0 5 -9 9 -9 14 -1 4 6 12 11
17 11 6 0 7 -5 3 -11 -4 -7 1 -7 16 1 18 10 24 9 31 -1 7 -11 9 -11 9 -1 0 10
5 10 21 1 16 -8 20 -8 14 1 -9 14 26 10 37 -5 5 -7 10 -7 15 0 12 15 31 17 55
4 15 -8 19 -8 13 1 -9 14 26 10 38 -5 5 -7 10 -7 15 0 11 15 30 17 54 4 13 -7
18 -7 14 -1 -4 6 2 10 14 9 11 -1 20 -5 20 -10 0 -5 5 -5 13 0 6 6 29 9 50 8
20 -1 37 0 37 4 0 3 36 6 80 6 47 0 80 -4 80 -10 0 -7 3 -7 8 0 4 6 30 10 57
10 28 0 53 -4 57 -10 5 -7 8 -7 8 0 0 6 65 10 175 10 110 0 175 -4 175 -10 0
-7 3 -7 8 0 4 6 30 10 57 10 28 0 53 -4 57 -10 5 -7 8 -6 8 1 0 6 20 9 52 6
34 -2 54 1 59 10 7 10 9 10 9 1 0 -7 7 -13 16 -13 8 0 13 3 11 8 -6 9 108 6
124 -4 7 -4 10 -3 5 4 -4 7 1 10 14 9 11 -1 20 -5 20 -10 0 -4 6 -5 13 0 20
13 41 13 49 0 5 -8 11 -8 16 -2 10 14 42 18 42 5 0 -6 5 -8 13 -3 20 13 41 13
49 0 5 -8 11 -8 16 -2 11 15 42 18 42 4 0 -7 4 -8 13 -2 13 10 155 10 181 0
10 -4 14 -3 11 3 -3 5 4 8 15 7 11 -1 20 -5 20 -10 0 -4 6 -5 13 0 20 13 41
13 49 0 5 -8 11 -8 16 -2 10 14 42 18 42 5 0 -6 5 -8 12 -3 21 13 42 13 50 0
5 -8 11 -8 16 -2 11 15 42 18 42 4 0 -8 4 -8 13 -2 16 13 47 12 47 -1 0 -7 3
-7 8 -1 4 6 18 11 32 12 84 8 131 7 134 -2 3 -6 5 -5 5 2 1 6 10 9 23 5 16 -4
19 -2 13 9 -7 11 -5 11 9 -1 24 -19 48 -19 64 0 10 11 12 12 6 1 -5 -10 -3
-13 9 -8 9 3 18 1 21 -6 3 -8 5 -8 5 -1 1 6 12 9 26 6 14 -2 33 2 42 9 11 9
14 10 9 2 -5 -10 17 -12 98 -12 75 1 104 5 99 13 -4 6 3 2 15 -8 12 -11 22
-14 22 -9 0 13 32 12 42 -2 4 -5 8 -1 8 10 0 13 3 16 8 8 10 -16 94 -15 86 1
-3 6 2 2 10 -8 9 -11 16 -15 16 -9 0 6 11 8 26 5 16 -3 30 1 35 9 7 11 9 11 9
1 0 -9 17 -12 60 -11 32 1 57 6 54 11 -8 12 19 5 28 -7 5 -6 8 -5 8 4 0 10 3
11 13 2 8 -6 17 -8 20 -4 13 12 58 12 51 0 -5 -9 -4 -9 6 0 9 9 19 9 33 2 13
-8 17 -8 13 -1 -4 6 2 10 14 9 11 -1 20 -5 20 -10 0 -5 7 -3 17 4 13 11 17 11
21 1 3 -10 7 -10 19 -1 12 10 16 10 24 -2 6 -10 9 -11 9 -1 0 10 5 10 21 1 13
-7 19 -7 15 -1 -4 6 2 10 14 9 11 -1 20 -5 20 -10 0 -5 7 -4 16 4 13 10 17 10
25 -2 7 -11 11 -12 18 -1 4 8 12 14 16 14 4 0 12 -6 16 -14 5 -7 9 -8 9 -2 0
14 30 14 30 0 0 -6 4 -5 9 2 11 17 21 17 32 0 5 -7 9 -8 9 -2 0 13 31 14 48 1
8 -6 12 -6 12 1 0 6 9 10 20 9 11 -1 20 -5 20 -10 0 -5 7 -4 16 4 13 10 17 10
25 -2 6 -10 9 -11 9 -1 0 10 5 10 21 1 13 -7 19 -7 15 -1 -4 6 2 10 14 9 11
-1 20 -5 20 -10 0 -5 7 -4 16 4 13 10 17 10 25 -2 6 -10 9 -11 9 -1 0 10 5 10
21 1 16 -8 20 -8 14 1 -9 14 26 10 38 -5 5 -7 10 -7 15 0 11 15 32 17 32 3 0
-10 2 -10 9 0 11 17 21 17 32 0 5 -7 9 -8 9 -3 0 15 28 16 393 18 212 1 327
-2 327 -8 0 -5 4 -4 9 3 4 8 12 14 16 14 4 0 12 -6 16 -14 5 -7 9 -8 9 -2 0
14 30 14 30 0 0 -6 4 -5 9 2 4 8 12 14 16 14 4 0 12 -6 16 -14 5 -7 9 -8 9 -3
0 12 39 13 57 2 6 -4 14 -1 17 5 5 10 7 10 12 0 5 -10 11 -9 27 5 11 10 17 12
13 5 -9 -15 8 -16 36 -1 15 8 22 8 28 -1 5 -8 10 -9 14 -2 6 10 50 7 69 -5 6
-3 7 -1 3 5 -4 7 1 10 14 9 11 -1 20 -5 20 -10 0 -4 6 -5 12 0 21 12 38 12 38
0 0 -7 7 -4 14 6 13 16 14 16 20 1 6 -15 8 -15 27 2 19 17 20 17 12 -2 -7 -18
-6 -18 20 -1 22 14 25 14 21 2 -5 -12 -2 -14 17 -6 14 5 34 5 47 0 14 -5 21
-5 17 1 -3 5 4 8 15 7 11 -1 20 -5 20 -10 0 -6 5 -6 13 0 13 10 75 10 102 -1
9 -3 13 -2 10 4 -3 5 4 8 15 7 11 -1 20 -5 20 -10 0 -4 6 -5 13 0 18 11 77 10
77 -2 0 -5 7 -2 14 8 13 16 14 16 20 1 6 -15 8 -15 27 2 19 17 20 17 12 -2 -7
-18 -6 -18 20 -1 23 15 26 15 20 1 -5 -13 -2 -15 13 -7 17 8 42 9 69 3 6 -1
12 -1 15 0 21 8 40 6 40 -3 0 -7 5 -5 10 3 5 8 10 11 10 6 0 -5 8 -2 17 5 11
10 14 10 9 2 -4 -7 -2 -13 3 -13 6 0 11 4 11 8 0 4 30 7 66 5 50 -3 64 0 59 9
-4 7 1 4 9 -6 9 -11 16 -16 16 -10 0 11 51 11 70 -1 8 -5 11 -4 7 2 -7 12 42
11 61 -1 7 -4 12 -3 12 1 0 5 9 9 20 9 11 0 20 -4 20 -8 0 -4 11 -3 25 2 18 7
25 6 25 -3 0 -7 3 -8 8 -2 8 11 102 14 102 3 0 -4 11 -3 24 2 17 6 26 5 30 -3
2 -7 5 -7 5 -1 1 6 24 9 61 7 41 -2 60 1 60 9 0 7 7 3 15 -8 8 -10 15 -14 15
-7 0 6 9 9 20 6 11 -3 27 0 36 8 8 7 14 8 13 3 -3 -20 2 -23 26 -14 15 6 26 6
30 0 4 -6 14 -7 23 -2 9 4 30 7 45 6 15 0 30 3 33 8 3 4 10 6 15 3 5 -4 18 -8
30 -10 16 -3 19 0 15 12 -5 12 -3 13 6 6 7 -6 23 -9 36 -7 15 3 21 0 16 -7 -4
-7 1 -7 16 1 18 10 24 9 31 -1 7 -12 9 -12 9 0 0 11 3 11 17 0 15 -12 16 -12
10 3 -4 12 -2 15 7 12 9 -3 16 5 21 23 4 17 2 29 -5 31 -7 3 -4 9 7 18 10 7
14 14 8 14 -6 0 -10 27 -9 62 0 42 -5 68 -15 80 -17 19 -22 98 -6 98 7 0 7 3
0 8 -5 4 -10 48 -10 97 0 50 5 93 10 97 6 5 6 8 -2 8 -6 0 -9 9 -6 20 3 11 0
27 -7 35 -11 13 -10 14 5 9 14 -6 16 -4 10 6 -12 20 -12 60 0 60 5 0 3 5 -5
10 -8 5 -10 10 -4 10 12 0 12 89 -1 109 -6 10 -4 12 5 6 10 -6 12 -4 7 8 -4
10 -2 16 5 14 7 -1 12 8 13 20 0 12 3 24 7 28 4 4 3 18 -3 32 -12 31 -11 36 1
28 7 -4 7 2 0 19 -6 17 -6 27 1 32 8 4 7 9 -2 14 -10 7 -10 12 -1 23 7 7 8 17
4 21 -4 4 0 6 8 4 12 -2 15 8 15 49 0 29 5 53 10 53 6 0 1 7 -9 15 -12 9 -15
15 -7 15 8 0 11 8 8 20 -3 11 -1 20 4 20 5 0 5 10 -1 24 -5 13 -6 27 -2 32 4
4 1 4 -5 0 -8 -4 -13 -1 -13 8 0 9 -5 16 -11 16 -5 0 -8 3 -6 7 5 10 -30 43
-37 36 -3 -4 -6 1 -6 10 0 10 -11 19 -27 23 -16 4 -39 19 -52 33 -13 14 -20
19 -16 11 5 -8 -4 -2 -18 13 -15 16 -32 25 -39 21 -7 -4 -8 -3 -4 5 7 10 -15
41 -29 41 -3 0 -19 13 -35 30 -18 19 -30 25 -34 17 -3 -9 -5 -9 -5 1 -1 15
-37 52 -51 52 -6 0 -9 4 -8 9 2 5 -1 9 -5 9 -5 1 -17 10 -26 21 -10 12 -24 21
-31 21 -7 0 -11 3 -7 6 7 7 -17 34 -30 35 -4 0 -12 7 -16 15 -5 8 -14 11 -20
8 -7 -4 -9 -4 -5 1 10 11 -32 46 -46 38 -6 -3 -8 -3 -4 2 8 9 -15 35 -32 35
-6 0 -9 4 -6 9 3 5 -2 15 -11 22 -14 12 -16 12 -8 0 5 -10 4 -12 -3 -7 -7 4
-12 14 -12 23 0 10 -6 14 -20 10 -11 -3 -17 -1 -14 4 6 11 -19 39 -35 39 -6 0
-11 5 -11 11 0 5 -5 7 -10 4 -6 -4 -9 -3 -8 2 5 14 -60 75 -72 68 -6 -3 -9 -1
-8 7 2 7 -5 12 -14 12 -10 -1 -14 4 -11 12 6 15 -35 35 -52 26 -5 -3 -4 1 3
10 11 14 10 17 -7 23 -12 3 -21 11 -21 16 0 6 -4 7 -10 4 -5 -3 -10 2 -10 12
0 15 -2 16 -10 3 -6 -10 -10 -11 -10 -2 0 14 -36 52 -50 52 -6 0 -9 4 -8 9 2
5 -1 9 -5 9 -5 1 -17 10 -26 21 -10 12 -24 21 -30 21 -7 0 -9 5 -6 11 4 6 -2
13 -14 16 -12 3 -21 9 -21 13 0 5 -8 7 -17 6 -10 -2 -21 2 -25 8 -5 7 -8 7 -8
-3 0 -11 -3 -11 -16 0 -13 10 -17 10 -25 -2 -5 -8 -9 -9 -9 -2 0 16 -190 16
-190 0 0 -8 -3 -7 -9 1 -4 8 -19 12 -32 11 -13 -2 -30 0 -36 4 -7 5 -13 4 -13
-1 0 -5 -21 -7 -46 -4 -38 4 -46 2 -39 -9 6 -11 5 -12 -6 -2 -7 7 -25 13 -39
13 -18 0 -26 6 -27 19 -1 14 3 18 14 14 9 -4 14 -2 11 3 -3 5 0 15 8 22 11 10
14 10 14 0 0 -10 3 -9 9 1 5 8 18 16 28 17 9 2 19 8 21 14 2 5 8 8 13 4 5 -3
9 3 9 13 0 15 2 16 10 3 8 -13 10 -12 10 3 0 10 4 16 9 13 10 -7 61 16 61 27
0 5 5 5 10 2 6 -3 10 -1 10 5 0 6 5 8 10 5 6 -3 13 1 16 9 3 9 10 14 14 11 5
-3 11 -1 15 5 4 6 10 8 15 5 4 -3 11 2 14 11 3 8 10 12 16 9 5 -3 10 -1 10 6
0 7 3 9 7 6 3 -4 12 -2 20 4 7 6 13 8 13 3 0 -5 5 -2 10 6 5 8 15 15 22 15 7
1 12 6 11 11 -1 6 5 11 13 12 7 1 21 3 29 4 8 1 15 11 15 22 0 15 3 17 8 8 10
-14 42 -6 42 11 0 6 3 7 6 4 4 -4 19 2 34 13 14 10 33 20 41 22 8 2 21 10 29
18 8 8 24 17 35 18 11 2 23 9 27 15 4 7 8 8 8 2 0 -5 5 -2 11 8 5 9 19 17 29
17 11 0 20 5 20 11 0 5 5 7 10 4 6 -3 10 -1 10 5 0 6 5 8 10 5 6 -3 13 0 16 9
3 8 12 12 19 10 7 -3 25 7 40 23 15 15 24 21 19 13 -6 -12 -5 -13 8 -3 8 7 18
10 21 6 4 -3 7 -1 7 5 0 7 7 12 15 12 8 0 15 5 15 10 0 6 3 9 8 9 20 -3 32 2
26 13 -4 7 -3 8 5 4 6 -4 18 -3 26 4 9 7 15 8 20 0 4 -7 11 -5 21 5 9 8 21 12
27 8 7 -4 8 0 4 11 -5 14 -3 17 8 13 8 -4 21 0 29 8 8 8 22 15 31 15 11 0 15
5 12 14 -4 10 0 12 14 9 10 -3 19 -1 19 4 0 5 20 17 45 27 24 10 42 22 39 27
-2 5 10 12 28 17 18 5 32 14 31 20 -2 6 4 9 12 6 9 -4 15 0 15 10 0 9 5 16 12
16 6 0 3 7 -8 16 -10 8 -13 13 -7 9 9 -4 11 -1 7 9 -3 9 -14 16 -23 17 -10 0
-11 3 -4 6 10 3 9 10 -2 27 -8 12 -12 26 -8 31 5 4 2 5 -4 1 -8 -5 -13 -1 -13
10 0 10 -3 15 -6 11 -3 -3 -17 5 -31 19 -16 16 -31 23 -41 19 -9 -3 -13 -3
-10 1 11 10 -33 40 -70 49 -18 4 -36 13 -39 22 -3 8 -12 12 -19 9 -8 -3 -19 4
-25 15 -6 11 -17 18 -24 15 -7 -2 -16 2 -19 11 -4 8 -13 13 -21 9 -9 -3 -15 0
-15 9 0 13 -6 17 -26 14 -3 0 -14 9 -24 21 -11 12 -36 28 -57 36 -21 7 -34 13
-29 14 6 0 1 6 -10 14 -14 11 -21 11 -26 3 -5 -8 -8 -6 -8 6 0 11 -15 23 -40
33 -23 9 -37 21 -33 27 3 5 1 7 -4 4 -6 -4 -16 0 -23 9 -7 8 -19 13 -27 10 -8
-3 -12 -2 -9 3 3 5 -2 12 -12 16 -9 3 -17 5 -17 3 0 -3 -22 14 -55 44 -11 10
-22 13 -29 7 -6 -5 -9 -6 -6 -3 7 11 -24 36 -36 28 -8 -4 -9 -3 -5 4 4 7 -2
16 -16 22 -13 6 -36 19 -53 30 -16 11 -40 24 -52 29 -11 5 -24 15 -28 21 -3 5
-10 8 -15 5 -4 -3 -11 2 -14 11 -3 8 -10 12 -16 9 -5 -3 -10 -1 -10 5 0 6 -5
8 -12 4 -8 -5 -9 -2 -4 11 5 15 4 16 -8 6 -11 -9 -14 -8 -12 6 0 10 -5 17 -11
16 -7 -2 -12 0 -10 5 1 4 -2 8 -7 9 -5 0 -13 8 -18 17 -12 21 -88 8 -88 -15 0
-5 -3 -8 -7 -8 -20 3 -34 -2 -28 -11 3 -5 -3 -10 -14 -10 -12 0 -21 -5 -21
-11 0 -5 -4 -7 -10 -4 -5 3 -10 2 -10 -2 0 -5 -9 -14 -21 -21 -13 -9 -18 -9
-14 -2 4 7 -1 14 -14 17 -11 3 -18 9 -15 14 3 5 1 17 -5 27 -6 11 -6 24 0 34
6 11 6 19 -1 23 -5 3 -10 11 -10 16 0 6 5 7 12 3 6 -4 8 -3 5 3 -9 15 -18 87
-19 156 -1 34 -6 57 -12 57 -6 0 -4 5 4 10 12 8 12 10 1 10 -10 0 -11 3 -2 14
9 10 9 16 1 21 -8 5 -8 10 0 20 7 8 7 15 1 19 -5 3 -8 17 -6 31 1 14 -2 25 -6
25 -5 0 -9 5 -9 11 0 5 5 7 11 3 8 -5 9 -2 2 11 -6 10 -8 27 -5 37 3 11 -1 24
-9 29 -11 7 -10 9 5 9 13 0 16 3 9 13 -6 6 -9 20 -8 30 2 9 -2 17 -8 17 -7 0
-5 5 3 10 8 5 11 10 5 10 -6 0 -10 33 -10 78 0 56 -4 81 -15 90 -8 8 -9 11 -2
7 6 -3 12 0 12 7 0 8 -6 20 -12 27 -11 11 -10 12 0 7 10 -6 12 2 10 29 -1 20
-6 39 -11 42 -4 2 -3 11 4 19 6 8 7 14 2 14 -5 0 -9 9 -10 20 -1 11 3 20 9 20
7 0 7 4 0 13 -6 7 -9 25 -8 40 2 15 -2 27 -8 27 -6 0 -4 5 4 10 8 5 11 10 5
10 -5 0 -10 25 -10 55 1 30 -3 55 -8 55 -4 0 -4 8 1 17 7 12 5 24 -7 42 -9 14
-11 22 -5 18 7 -4 14 0 18 8 3 8 2 15 -3 15 -4 0 -7 10 -6 23 1 12 -2 30 -7
40 -6 12 -5 17 4 17 6 0 3 7 -8 16 -10 8 -14 13 -7 9 9 -4 12 7 11 40 0 25 -5
45 -10 45 -6 0 -4 8 3 17 9 10 9 14 2 10 -15 -9 -13 44 2 55 6 5 5 8 -3 8 -9
0 -10 5 -4 17 7 12 5 24 -7 42 -13 21 -13 24 -1 17 12 -7 13 -6 3 5 -7 7 -13
17 -13 22 0 4 6 5 13 2 6 -4 4 0 -6 8 -17 14 -17 15 0 21 15 6 15 8 3 17 -13
8 -13 10 0 19 12 7 12 10 1 10 -7 0 -11 6 -8 15 4 8 2 17 -4 21 -6 4 -6 11 2
20 6 8 7 14 2 14 -5 0 -9 20 -8 45 0 25 5 45 10 45 6 0 6 3 -1 8 -16 11 -24
50 -10 56 7 3 7 5 0 5 -6 1 -9 17 -7 38 1 21 -3 40 -10 45 -9 6 -8 8 3 8 13 0
13 1 0 10 -13 9 -13 10 0 10 12 0 12 2 1 9 -10 7 -11 13 -1 31 8 15 8 20 1 16
-15 -10 -14 7 1 22 8 8 8 12 1 12 -6 0 -11 10 -10 23 0 12 -4 31 -8 41 -6 14
-5 17 4 11 10 -6 11 -3 1 15 -9 18 -9 24 0 30 9 5 9 9 1 14 -6 4 -9 12 -5 17
3 5 0 17 -8 26 -9 12 -9 15 0 9 7 -4 12 -2 12 8 0 8 -5 18 -10 21 -8 5 -8 11
0 20 8 10 8 15 -1 20 -8 6 -7 10 2 16 8 5 9 9 4 9 -6 0 -11 10 -12 23 -1 12
-3 59 -4 105 -2 45 -7 82 -12 82 -5 0 -4 7 3 15 7 9 8 15 2 15 -11 0 -10 39 2
58 3 6 2 13 -2 16 -9 5 -12 34 -15 134 0 28 -4 52 -8 52 -9 0 -6 41 4 57 4 6
3 14 -3 18 -5 3 -10 11 -10 16 0 6 4 7 10 4 6 -3 7 1 4 9 -3 9 -17 16 -31 16
-13 0 -22 -4 -19 -9 4 -5 -4 -7 -16 -3 -16 4 -19 2 -13 -8 5 -8 4 -11 -3 -7
-16 11 -42 -3 -42 -22 0 -14 -2 -14 -10 -1 -7 11 -10 11 -10 2 0 -7 -4 -10
-10 -7 -5 3 -10 1 -10 -6 0 -7 -3 -9 -7 -6 -3 4 -12 -1 -20 -11 -8 -9 -12 -11
-8 -4 3 6 1 12 -4 12 -6 0 -11 -4 -11 -10 0 -5 -11 -12 -25 -16 -14 -3 -25
-11 -25 -18 0 -6 -5 -4 -10 4 -6 10 -10 11 -10 3 0 -9 -7 -10 -25 -3 -17 7
-25 6 -25 -1 0 -8 -4 -8 -14 0 -11 9 -18 8 -30 -4 -14 -15 -43 -25 -73 -27 -7
-1 -13 -5 -13 -9 0 -4 -9 -6 -20 -4 -11 2 -20 -1 -20 -6 0 -6 -5 -7 -10 -4 -6
4 -16 2 -23 -3 -7 -5 -20 -8 -29 -7 -10 2 -18 -1 -18 -6 0 -4 -7 -6 -15 -3 -8
4 -15 1 -15 -4 0 -6 -9 -9 -20 -7 -11 2 -20 0 -20 -5 0 -5 -9 -7 -20 -5 -11 2
-20 0 -20 -6 0 -5 -13 -9 -30 -9 -16 0 -30 -4 -30 -8 0 -4 -8 -8 -17 -9 -28
-3 -68 -10 -70 -13 -2 -1 -7 -4 -13 -5 -5 -1 -13 -4 -17 -5 -5 -1 -11 -2 -15
-1 -5 0 -8 -3 -8 -8 0 -6 -9 -8 -20 -6 -11 2 -20 0 -20 -5 0 -5 -9 -7 -20 -5
-11 2 -20 0 -20 -6 0 -5 -11 -9 -24 -9 -14 0 -28 -5 -31 -11 -4 -6 -13 -8 -21
-5 -8 3 -14 1 -14 -4 0 -6 -6 -10 -14 -10 -8 0 -27 -5 -43 -12 -15 -6 -34 -10
-40 -9 -7 1 -13 -3 -13 -8 0 -5 -9 -8 -20 -6 -11 2 -20 0 -20 -6 0 -5 -9 -9
-19 -9 -31 0 -51 -11 -44 -24 4 -6 0 -6 -9 2 -11 8 -17 9 -20 2 -2 -6 -17 -13
-33 -16 -16 -3 -33 -10 -36 -16 -4 -6 -12 -7 -18 -4 -6 4 -11 2 -11 -4 0 -6
-4 -9 -9 -5 -5 3 -13 0 -16 -6 -4 -5 -13 -8 -21 -5 -8 3 -17 -1 -20 -9 -3 -7
-12 -11 -20 -8 -8 3 -14 -1 -14 -8 0 -12 -2 -12 -9 -1 -6 11 -10 10 -15 -3 -3
-9 -12 -15 -19 -12 -7 3 -21 -1 -31 -9 -11 -7 -23 -11 -27 -8 -5 3 -9 -3 -9
-13 0 -15 -2 -16 -10 -3 -9 14 -15 7 -10 -15 1 -5 -4 -5 -11 2 -10 10 -15 9
-26 -5 -9 -10 -12 -11 -7 -2 7 13 5 13 -9 1 -9 -7 -17 -10 -17 -5 0 5 -5 1
-11 -10 -9 -15 -13 -16 -20 -5 -6 10 -9 11 -9 2 0 -7 -7 -13 -15 -13 -8 0 -15
-4 -15 -10 0 -5 -7 -6 -17 -3 -12 5 -14 3 -8 -7 6 -10 4 -12 -8 -7 -9 3 -22 1
-29 -6 -8 -7 -20 -13 -28 -15 -8 -2 -19 -9 -25 -16 -5 -7 -16 -11 -22 -9 -7 3
-13 0 -13 -6 0 -6 -7 -7 -17 -4 -11 4 -14 3 -9 -5 5 -8 2 -10 -8 -6 -9 3 -16
2 -16 -4 0 -5 -7 -13 -16 -16 -10 -4 -13 -2 -9 7 4 6 -1 3 -9 -7 -9 -11 -16
-16 -16 -10 0 5 -10 -2 -21 -16 -11 -14 -17 -18 -13 -10 7 13 6 13 -12 0 -10
-8 -22 -19 -26 -25 -4 -5 -8 -6 -8 -2 0 4 -15 -3 -33 -17 -19 -14 -37 -23 -40
-19 -7 6 -11 -13 -8 -31 1 -5 -4 -4 -12 2 -11 10 -17 9 -27 -2 -6 -9 -9 -20
-5 -25 3 -7 0 -8 -9 -5 -10 4 -38 -17 -81 -60 -36 -37 -65 -63 -65 -59 0 4 -7
-2 -15 -13 -11 -13 -14 -14 -13 -4 2 8 -3 14 -10 12 -6 -1 -11 1 -11 5 3 20
-2 34 -11 28 -5 -3 -10 0 -10 8 0 7 -11 23 -25 35 -14 12 -25 19 -25 15 0 -3
-9 4 -20 17 -11 13 -20 20 -20 16 0 -4 -11 5 -25 19 -14 14 -30 25 -35 25 -5
0 -16 7 -24 16 -9 9 -24 17 -34 19 -9 1 -16 8 -14 15 2 8 -3 10 -13 7 -8 -4
-15 -2 -15 3 0 6 -7 10 -15 10 -8 0 -15 5 -15 12 0 6 -3 8 -7 5 -3 -4 -11 0
-18 9 -6 9 -23 17 -38 17 -15 1 -29 8 -32 15 -3 7 -9 10 -15 7 -5 -3 -10 -1
-10 5 0 7 -7 9 -16 6 -8 -3 -13 -2 -10 3 3 5 -1 11 -8 14 -8 3 -17 1 -20 -6
-2 -7 -5 -5 -5 5 -1 9 -6 20 -13 24 -7 5 -8 3 -3 -7 5 -8 0 -7 -12 4 -11 9
-23 14 -26 10 -4 -3 -7 -1 -7 5 0 7 -3 11 -7 10 -5 -1 -21 6 -36 16 -15 10
-30 16 -34 12 -4 -3 -15 1 -25 11 -10 9 -18 13 -18 9 0 -3 -11 1 -25 10 -13 8
-28 13 -33 10 -5 -3 -16 4 -26 16 -15 17 -20 18 -27 7 -7 -11 -9 -10 -9 4 0
10 -4 16 -9 12 -5 -3 -15 0 -23 7 -7 7 -20 14 -28 16 -8 2 -16 8 -18 13 -2 5
-8 9 -13 9 -6 0 -7 -6 -3 -12 4 -7 -4 -3 -17 9 -20 18 -28 20 -38 10 -10 -10
-11 -8 -5 8 4 11 4 17 -1 13 -4 -4 -14 -3 -22 4 -7 6 -16 8 -20 5 -3 -4 -12 1
-20 11 -9 10 -12 11 -7 2 6 -13 5 -13 -12 0 -28 23 -94 51 -104 45 -5 -3 -13
3 -19 12 -6 10 -11 14 -11 8 0 -6 -3 -6 -8 1 -9 12 -94 55 -86 43 3 -5 0 -9
-5 -9 -6 0 -11 5 -11 11 0 5 -4 8 -9 4 -5 -3 -12 -1 -16 5 -4 6 -11 7 -17 4
-6 -4 -8 -2 -4 4 3 6 2 13 -4 17 -5 3 -10 0 -10 -7 0 -8 -5 -6 -11 5 -8 14
-14 16 -25 6 -12 -10 -13 -9 -8 7 4 10 4 16 -1 12 -4 -4 -20 -1 -35 7 -15 8
-30 11 -34 8 -3 -4 -6 -1 -6 5 0 7 -10 12 -22 13 -13 0 -17 3 -10 6 10 4 9 8
-5 17 -39 22 -88 55 -100 66 -7 6 -13 8 -13 5 0 -3 -9 4 -20 15 -12 12 -25 18
-30 15 -6 -4 -10 1 -10 9 0 10 -6 13 -17 9 -10 -4 -14 -2 -10 4 4 6 -4 14 -18
17 -14 4 -25 11 -25 17 0 6 -4 7 -10 4 -5 -3 -10 -1 -10 5 0 6 -4 8 -10 5 -5
-3 -10 2 -10 11 0 10 -3 14 -7 11 -3 -4 -12 1 -20 11 -8 9 -12 12 -9 6 3 -6
-1 -11 -8 -11 -8 0 -12 7 -8 15 3 10 1 13 -6 8 -7 -4 -12 -3 -12 3 0 6 -11 13
-25 17 -14 3 -32 16 -40 27 -8 12 -15 18 -15 13 0 -5 -11 -1 -25 8 -14 9 -25
13 -25 9 0 -5 -5 -1 -10 7 -8 12 -10 12 -10 1 0 -11 -3 -11 -17 0 -15 12 -16
12 -8 -1 7 -12 6 -13 -6 -4 -22 16 -79 18 -79 2 0 -11 -2 -11 -9 0 -4 8 -19
12 -32 11 -13 -2 -30 0 -36 4 -8 5 -13 3 -13 -3z"/>
</g>
</svg>
